<?xml version="1.0" encoding="utf-8"?>
<!-- Generator: Adobe Illustrator 16.0.0, SVG Export Plug-In . SVG Version: 6.00 Build 0)  -->
<!DOCTYPE svg PUBLIC "-//W3C//DTD SVG 1.1//EN" "http://www.w3.org/Graphics/SVG/1.1/DTD/svg11.dtd">
<svg version="1.1" id="レイヤー_1" xmlns="http://www.w3.org/2000/svg" xmlns:xlink="http://www.w3.org/1999/xlink" x="0px"
	 y="0px" width="135px" height="38.285px" viewBox="0 0 135 38.285" enable-background="new 0 0 135 38.285" xml:space="preserve">
<g>
	<g>
		<path d="M36.302,8.164c3.065-0.303,5.382-0.455,6.952-0.455c1.569,0,2.813,0.115,3.731,0.343s1.673,0.584,2.267,1.066
			c1.149,0.939,1.724,2.481,1.724,4.625c0,0.964-0.183,1.848-0.547,2.651c-0.365,0.804-0.862,1.493-1.493,2.067
			s-1.369,1.023-2.215,1.344c-0.847,0.322-1.752,0.482-2.716,0.482l-1.65-0.037v2.679h-6.053V8.164z M44.654,11.557
			c-0.532,0-1.311,0.368-2.336,1.103v3.495l1.084-0.528c0.717-0.353,1.217-0.689,1.501-1.011c0.531-0.599,0.797-1.196,0.797-1.789
			c0-0.593-0.201-0.986-0.603-1.177C44.969,11.587,44.82,11.557,44.654,11.557z"/>
		<path d="M57.789,22.93h-5.256V7.33h5.256V22.93z"/>
		<path d="M61.311,21.906c-0.495-0.46-0.889-1.041-1.182-1.743c-0.293-0.701-0.44-1.457-0.44-2.266s0.08-1.511,0.241-2.104
			c0.321-1.18,0.884-2.172,1.687-2.975c0.383-0.396,0.81-0.729,1.279-1.001c0.964-0.562,1.982-0.843,3.054-0.843
			s2.013,0.355,2.823,1.066c0.259,0.229,0.485,0.491,0.677,0.788l1.325-1.418h3.041V22.93h-3.041l-1.325-1.919
			c-1.014,1.496-2.549,2.247-4.607,2.252c-0.569,0.006-1.176-0.104-1.822-0.329C62.375,22.709,61.805,22.366,61.311,21.906z
			 M68.819,14.903c-0.223-0.13-0.488-0.195-0.797-0.195s-0.635,0.11-0.978,0.329c-0.343,0.22-0.65,0.496-0.922,0.83
			c-0.605,0.748-0.908,1.508-0.908,2.28c0,0.544,0.167,0.927,0.5,1.149c0.309,0.204,0.78,0.175,1.414-0.088s1.197-0.604,1.692-1.024
			V14.903z"/>
		<path d="M82.677,10.991c0.735,0,1.492,0.121,2.271,0.361V7.33h5.395V22.93h-3.439l-1.325-1.919
			c-1.131,1.496-2.617,2.243-4.458,2.243c-1.477,0-2.767-0.502-3.87-1.506c-1.103-1.004-1.654-2.291-1.654-3.861
			s0.321-2.861,0.964-3.875C77.832,11.999,79.872,10.991,82.677,10.991z M84.948,14.903c-0.21-0.13-0.439-0.195-0.686-0.195
			c-0.248,0-0.485,0.05-0.714,0.148c-0.47,0.204-0.89,0.535-1.261,0.992c-0.198,0.223-0.365,0.46-0.5,0.714
			c-0.296,0.544-0.445,1.083-0.445,1.618s0.164,0.907,0.491,1.117c0.117,0.074,0.26,0.115,0.426,0.121
			c0.803,0,1.7-0.405,2.688-1.214V14.903z"/>
		<path d="M98.056,16.775c0,2.027,0.491,3.04,1.474,3.04c0.494,0,0.781-0.241,0.862-0.723c0.024-0.148,0.037-0.312,0.037-0.491
			v-7.193h5.506V22.93h-3.04l-1.326-1.808c-0.784,1.069-1.919,1.765-3.401,2.086c-1.817,0.389-3.281,0.08-4.395-0.927
			c-0.84-0.76-1.26-1.764-1.26-3.013v-7.86h5.543V16.775z"/>
		<path d="M114.796,19.417c0.624,0,1.526-0.442,2.707-1.326v4.533c-2.027,0.766-3.896,0.874-5.608,0.324s-2.926-1.533-3.643-2.948
			c-0.358-0.717-0.538-1.557-0.538-2.521c0-1.94,0.668-3.513,2.003-4.718s3.071-1.808,5.209-1.808c0.884,0,1.681,0.133,2.392,0.398
			v3.569c-0.167-0.142-0.401-0.213-0.704-0.213s-0.628,0.096-0.974,0.288s-0.661,0.448-0.945,0.769
			c-0.655,0.742-0.981,1.503-0.979,2.285c0.004,0.782,0.24,1.222,0.71,1.321C114.549,19.396,114.673,19.411,114.796,19.417z"/>
		<path d="M125.956,18.926h-0.51c-0.161,0-0.315-0.006-0.464-0.019c0,0.735,0.393,1.137,1.178,1.205
			c0.216,0.019,0.427,0.028,0.63,0.028c0.525,0,1.186-0.121,1.979-0.362c0.794-0.241,1.506-0.633,2.137-1.177l0.574,2.883
			c-1.378,1.192-3.46,1.789-6.247,1.789c-1.601,0-2.976-0.466-4.125-1.399c-1.249-1.02-1.873-2.432-1.873-4.236
			c0-1.359,0.353-2.58,1.057-3.661c0.655-0.989,1.542-1.74,2.661-2.253c1.118-0.513,2.326-0.769,3.624-0.769
			c1.681,0,2.952,0.368,3.814,1.103s1.291,1.644,1.288,2.725c-0.003,1.082-0.521,2.042-1.553,2.883
			C129.096,18.505,127.705,18.926,125.956,18.926z M127.207,14.708c0-0.543-0.253-0.815-0.76-0.815
			c-0.581,0.056-0.958,0.355-1.131,0.899c-0.087,0.26-0.146,0.561-0.181,0.904s-0.085,0.709-0.153,1.099l2.03-0.455l0.177-1.418
			L127.207,14.708z"/>
	</g>
	<path fill="none" stroke="#E84377" stroke-width="3" stroke-miterlimit="10" d="M29.542,22.477l-3.002-5.731
		c0.63-1.207,0.979-2.533,0.979-3.926c0-5.584-5.6-10.111-12.509-10.111S2.5,7.235,2.5,12.819c0,5.584,5.6,10.112,12.509,10.112
		c2.561,0,4.941-0.624,6.924-1.691L29.542,22.477z"/>
	<g>
		<path d="M97.621,4.261C97.542,5.23,97.35,6.023,97.042,6.64c-0.308,0.618-0.817,1.135-1.528,1.552
			c-0.711,0.417-1.589,0.679-2.635,0.786l-0.131-0.482c1.113-0.106,2.086-0.454,2.917-1.041c0.832-0.587,1.293-1.599,1.385-3.034
			h-4.375V3.948h4.64c-0.042-0.087-0.064-0.187-0.066-0.297c0-0.188,0.068-0.346,0.205-0.476c0.138-0.13,0.309-0.197,0.513-0.201
			c0.192,0,0.355,0.065,0.49,0.195c0.136,0.13,0.205,0.294,0.209,0.492c0,0.189-0.067,0.349-0.204,0.479
			c-0.136,0.13-0.301,0.197-0.495,0.201C97.839,4.341,97.724,4.314,97.621,4.261z M97.953,4.114c0.124,0,0.231-0.043,0.324-0.131
			s0.139-0.194,0.139-0.319c0-0.128-0.045-0.237-0.136-0.329c-0.09-0.091-0.199-0.137-0.327-0.137c-0.123,0-0.23,0.045-0.322,0.136
			s-0.138,0.197-0.138,0.321s0.046,0.231,0.136,0.323C97.72,4.068,97.828,4.114,97.953,4.114z"/>
		<path d="M104.682,5.408c-0.023,0.383-0.058,0.68-0.102,0.891c-0.045,0.211-0.159,0.505-0.344,0.883s-0.45,0.696-0.797,0.955
			s-0.779,0.46-1.297,0.604c-0.517,0.144-1.127,0.225-1.829,0.245l-0.093-0.463c1.211-0.027,2.133-0.258,2.764-0.691
			c0.632-0.433,1.003-1.09,1.116-1.972h-4.637v-0.45H104.682z M104.462,4.277H99.72V3.83h4.742V4.277z"/>
		<path d="M109.024,6.276c0,0.542-0.088,0.982-0.265,1.317c-0.177,0.335-0.457,0.62-0.842,0.854
			c-0.384,0.234-0.874,0.413-1.471,0.537l-0.169-0.451c0.669-0.143,1.198-0.378,1.591-0.707c0.392-0.329,0.587-0.807,0.587-1.432
			V6.062h-2.864V5.596h5.879v0.466h-2.446V6.276z M110.235,4.315h-4.27V3.872h4.27V4.315z M110.928,4.079l-0.367,0.163
			c-0.153-0.347-0.308-0.646-0.463-0.895l0.345-0.156C110.632,3.485,110.794,3.781,110.928,4.079z M111.803,3.884l-0.363,0.15
			c-0.141-0.328-0.294-0.623-0.46-0.884l0.335-0.157C111.479,3.247,111.642,3.543,111.803,3.884z"/>
		<path d="M117.611,8.802h-5.23V8.384h3.165l0.386-2.932h-2.819V5.047h3.389l-0.451,3.337h1.562V8.802z"/>
		<path d="M124.305,6.583h-5.281V6.11h5.281V6.583z"/>
		<path d="M131.327,8.646l-0.453,0.352c-0.583-0.601-1.381-1.327-2.392-2.178c-1.059,1.018-2.111,1.735-3.158,2.152l-0.243-0.405
			c0.877-0.358,1.75-0.925,2.62-1.701s1.479-1.624,1.828-2.543h-3.644V3.878h4.219l0.131,0.118
			c-0.298,0.903-0.776,1.727-1.434,2.472C129.453,6.977,130.295,7.703,131.327,8.646z"/>
	</g>
	<g>
		<path d="M12.981,32.665l-0.216,0.654c-0.395-0.153-0.762-0.289-1.101-0.407c-0.15,0.713-0.396,1.315-0.738,1.804
			c-0.342,0.489-0.815,0.92-1.419,1.291l-0.407-0.46c1.049-0.71,1.686-1.662,1.91-2.856c-0.932-0.292-1.8-0.482-2.604-0.571
			c-0.825,2.205-1.745,3.308-2.759,3.308c-0.324,0-0.594-0.122-0.809-0.365s-0.323-0.537-0.323-0.882
			c0-0.377,0.108-0.771,0.325-1.183c0.216-0.411,0.561-0.768,1.032-1.07c0.472-0.302,1.007-0.455,1.605-0.458
			c0.136,0,0.276,0.003,0.42,0.009c0.221-0.678,0.368-1.352,0.442-2.021H5.531v-0.562h3.466l0.137,0.146
			c-0.112,0.914-0.287,1.747-0.526,2.498c0.775,0.091,1.605,0.269,2.489,0.531c0.018-0.215,0.026-0.745,0.026-1.587h0.69
			l0.004,0.769c0,0.41-0.016,0.752-0.049,1.026C12.041,32.363,12.445,32.491,12.981,32.665z M7.697,32.068
			C7.562,32.063,7.453,32.06,7.37,32.06c-0.46,0-0.863,0.125-1.209,0.374c-0.346,0.249-0.6,0.547-0.76,0.896
			c-0.161,0.348-0.241,0.638-0.241,0.871c0,0.163,0.055,0.302,0.164,0.42c0.109,0.118,0.242,0.177,0.398,0.177
			c0.31,0,0.66-0.288,1.052-0.864C7.165,33.355,7.473,32.734,7.697,32.068z"/>
		<path d="M17.606,28.783c-0.377,0.755-0.924,1.893-1.641,3.414c0.398-0.262,0.765-0.394,1.101-0.394
			c0.315,0.003,0.563,0.096,0.743,0.279c0.18,0.183,0.304,0.525,0.372,1.026c0.065,0.713,0.125,1.187,0.181,1.421
			c0.056,0.234,0.167,0.415,0.334,0.542c0.167,0.127,0.4,0.19,0.701,0.19c0.935,0,1.554-0.892,1.857-2.675l0.632,0.199
			c-0.242,1.255-0.567,2.087-0.975,2.496c-0.408,0.408-0.937,0.612-1.585,0.612c-0.651,0.003-1.09-0.174-1.315-0.531
			c-0.225-0.356-0.363-0.841-0.413-1.455l-0.08-0.809c-0.021-0.209-0.084-0.383-0.19-0.522c-0.106-0.139-0.248-0.208-0.424-0.208
			c-0.295,0-0.597,0.13-0.906,0.389c-0.31,0.26-0.539,0.56-0.688,0.9c-0.148,0.34-0.485,1.088-1.01,2.244l-0.614-0.212l1.393-3.166
			l1.848-3.957L17.606,28.783z"/>
		<path d="M25.221,28.558c-0.021,0.462-0.058,0.895-0.111,1.295h1.968v0.588h-2.056c-0.304,1.769-0.928,3.272-1.875,4.51
			l-0.518-0.38c0.837-1.132,1.402-2.508,1.693-4.13h-1.446v-0.588h1.539c0.059-0.43,0.094-0.865,0.106-1.305L25.221,28.558z
			 M30.88,34.85l-0.354,0.562c-0.619-0.501-1.167-0.868-1.645-1.101v0.42c0,0.867-0.637,1.3-1.91,1.3
			c-0.525,0-0.972-0.112-1.342-0.336c-0.37-0.224-0.555-0.533-0.555-0.928c0-0.434,0.188-0.775,0.563-1.026
			c0.376-0.25,0.835-0.376,1.377-0.376c0.421,0,0.811,0.035,1.167,0.106v-2.396h0.699v2.604
			C29.468,33.902,30.134,34.292,30.88,34.85z M28.201,34.054c-0.392-0.104-0.787-0.155-1.185-0.155
			c-0.345,0-0.647,0.071-0.906,0.214s-0.389,0.34-0.389,0.59c0,0.501,0.447,0.751,1.34,0.751c0.76,0,1.141-0.248,1.141-0.743V34.054
			z M30.898,31.021l-0.544,0.433c-0.545-0.69-1.3-1.399-2.264-2.127l0.398-0.438C29.316,29.373,30.12,30.083,30.898,31.021z"/>
		<path d="M36,35.773l-0.172-0.597c0.949-0.085,1.761-0.361,2.434-0.827c0.674-0.465,1.01-1.161,1.01-2.087
			c0-0.825-0.271-1.463-0.815-1.915s-1.302-0.69-2.275-0.716c-0.033,1.586-0.317,2.91-0.854,3.971s-1.208,1.592-2.016,1.592
			c-0.501,0-0.896-0.213-1.183-0.639c-0.287-0.426-0.431-0.945-0.431-1.559c0-1.011,0.437-1.919,1.309-2.726s1.906-1.209,3.1-1.209
			c1.123,0,2.048,0.281,2.777,0.842c0.728,0.562,1.092,1.329,1.092,2.301c0,1.108-0.367,1.956-1.101,2.542
			C38.141,35.334,37.183,35.676,36,35.773z M35.488,29.689c-0.855,0.13-1.59,0.517-2.207,1.161s-0.924,1.372-0.924,2.182
			c0,0.43,0.09,0.795,0.27,1.094s0.43,0.449,0.751,0.449c0.551,0,1.032-0.515,1.442-1.545C35.23,32,35.452,30.886,35.488,29.689z"/>
		<path d="M47.753,29.451c-0.109,1.341-0.376,2.439-0.802,3.294c-0.426,0.855-1.131,1.571-2.116,2.149
			c-0.985,0.578-2.201,0.94-3.648,1.088l-0.182-0.668c1.542-0.147,2.888-0.627,4.04-1.441c1.151-0.813,1.79-2.213,1.917-4.2h-6.058
			v-0.655h6.425c-0.059-0.121-0.09-0.258-0.093-0.411c0-0.259,0.095-0.479,0.285-0.659c0.19-0.18,0.427-0.272,0.709-0.279
			c0.266,0,0.492,0.09,0.679,0.27c0.188,0.18,0.284,0.407,0.29,0.681c0,0.263-0.094,0.484-0.283,0.664
			c-0.189,0.18-0.417,0.272-0.686,0.278C48.054,29.561,47.895,29.524,47.753,29.451z M48.213,29.247c0.171,0,0.321-0.06,0.449-0.181
			c0.128-0.121,0.192-0.268,0.192-0.442c0-0.177-0.063-0.329-0.188-0.455c-0.125-0.127-0.276-0.19-0.453-0.19
			c-0.171,0-0.32,0.063-0.447,0.188c-0.126,0.125-0.19,0.273-0.19,0.444s0.063,0.32,0.188,0.447
			C47.89,29.184,48.04,29.247,48.213,29.247z"/>
		<path d="M57.53,31.038c-0.032,0.53-0.08,0.942-0.141,1.233c-0.062,0.292-0.221,0.7-0.476,1.223
			c-0.255,0.523-0.623,0.964-1.103,1.322c-0.48,0.358-1.079,0.637-1.795,0.835c-0.716,0.199-1.561,0.312-2.534,0.338l-0.128-0.641
			c1.677-0.038,2.953-0.357,3.827-0.958c0.874-0.6,1.389-1.51,1.545-2.73h-6.42v-0.624H57.53z M57.225,29.473h-6.566v-0.619h6.566
			V29.473z"/>
		<path d="M67.019,31.591c-0.495,0.864-1.138,1.61-1.928,2.239c-0.79,0.629-1.612,1.098-2.465,1.406s-1.858,0.524-3.013,0.648
			l-0.155-0.681c0.961-0.097,1.822-0.273,2.582-0.528c0.761-0.255,1.405-0.563,1.935-0.924c0.529-0.361,0.975-0.719,1.337-1.074
			c0.363-0.355,0.729-0.844,1.101-1.466L67.019,31.591z M63.163,30.468l-0.5,0.579c-1.052-0.648-2.102-1.195-3.148-1.641l0.38-0.553
			C60.998,29.267,62.087,29.804,63.163,30.468z"/>
		<path d="M75.681,29.84h-2.215c-0.54,0.23-1.065,0.65-1.576,1.262c-0.512,0.612-0.767,1.248-0.767,1.908
			c0,0.51,0.135,0.935,0.407,1.275c0.271,0.34,0.634,0.59,1.087,0.747c0.454,0.158,1.055,0.237,1.804,0.237
			c0.174,0,0.352-0.004,0.535-0.013l-0.044,0.654H74.89c-0.545,0-0.998-0.01-1.357-0.029c-0.36-0.019-0.738-0.091-1.136-0.217
			c-0.398-0.125-0.749-0.316-1.053-0.572c-0.304-0.257-0.529-0.553-0.676-0.889c-0.147-0.336-0.221-0.716-0.221-1.141
			c0-0.592,0.181-1.18,0.542-1.762c0.361-0.583,0.838-1.075,1.431-1.479h-4.435v-0.588h7.698V29.84z M74.584,31.723l-0.508,0.23
			c-0.212-0.478-0.426-0.892-0.641-1.242l0.478-0.217C74.169,30.892,74.393,31.302,74.584,31.723z M75.871,31.454l-0.508,0.208
			c-0.198-0.457-0.408-0.864-0.632-1.221l0.469-0.23C75.402,30.529,75.626,30.944,75.871,31.454z"/>
		<path d="M83.976,29.451c-0.109,1.341-0.376,2.439-0.802,3.294c-0.426,0.855-1.131,1.571-2.116,2.149
			c-0.985,0.578-2.201,0.94-3.648,1.088l-0.182-0.668c1.542-0.147,2.888-0.627,4.04-1.441c1.151-0.813,1.79-2.213,1.917-4.2h-6.058
			v-0.655h6.425c-0.059-0.121-0.09-0.258-0.093-0.411c0-0.259,0.095-0.479,0.285-0.659c0.19-0.18,0.427-0.272,0.709-0.279
			c0.266,0,0.492,0.09,0.679,0.27c0.188,0.18,0.284,0.407,0.29,0.681c0,0.263-0.094,0.484-0.283,0.664
			c-0.189,0.18-0.417,0.272-0.686,0.278C84.277,29.561,84.118,29.524,83.976,29.451z M84.436,29.247c0.171,0,0.321-0.06,0.449-0.181
			c0.128-0.121,0.192-0.268,0.192-0.442c0-0.177-0.063-0.329-0.188-0.455c-0.125-0.127-0.276-0.19-0.453-0.19
			c-0.171,0-0.32,0.063-0.447,0.188c-0.126,0.125-0.19,0.273-0.19,0.444s0.063,0.32,0.188,0.447
			C84.112,29.184,84.262,29.247,84.436,29.247z"/>
		<path d="M93.638,35.685h-7.057v-6.438h7.057V35.685z M92.886,35.066v-5.23h-5.571v5.23H92.886z"/>
		<path d="M99.767,32.241c0,0.751-0.123,1.359-0.367,1.824c-0.245,0.464-0.634,0.859-1.165,1.183
			c-0.532,0.324-1.211,0.572-2.036,0.743l-0.234-0.624c0.925-0.197,1.659-0.524,2.201-0.979c0.543-0.455,0.814-1.116,0.814-1.983
			v-0.46h-3.967v-0.646h8.141v0.646h-3.387V32.241z M101.442,29.526H95.53v-0.615h5.912V29.526z M102.401,29.199l-0.509,0.225
			c-0.212-0.48-0.426-0.893-0.641-1.238l0.478-0.217C101.991,28.376,102.216,28.786,102.401,29.199z M103.613,28.929l-0.504,0.208
			c-0.195-0.454-0.407-0.862-0.637-1.225l0.464-0.216C103.163,28.046,103.389,28.457,103.613,28.929z"/>
		<path d="M111.656,35.738h-7.243v-0.579h4.382l0.535-4.059h-3.904v-0.562h4.691l-0.623,4.621h2.162V35.738z"/>
		<path d="M120.924,32.665h-7.313v-0.654h7.313V32.665z"/>
		<path d="M130.647,35.521l-0.628,0.486c-0.808-0.831-1.912-1.836-3.312-3.016c-1.466,1.409-2.923,2.403-4.373,2.98l-0.336-0.562
			c1.214-0.496,2.423-1.28,3.628-2.354c1.204-1.075,2.048-2.249,2.531-3.522h-5.045V28.92h5.841l0.181,0.164
			c-0.412,1.25-1.074,2.391-1.985,3.422C128.052,33.21,129.218,34.216,130.647,35.521z"/>
	</g>
</g>
<g>
</g>
<g>
</g>
<g>
</g>
<g>
</g>
<g>
</g>
<g>
</g>
</svg>
